<svg width="1920" height="1080" viewBox="0 0 1920 1080" xmlns="http://www.w3.org/2000/svg">
  <defs>
    <linearGradient id="bg-gradient" x1="0%" y1="0%" x2="100%" y2="100%">
      <stop offset="0%" style="stop-color:#1a365d;stop-opacity:1" />
      <stop offset="100%" style="stop-color:#2c5282;stop-opacity:1" />
    </linearGradient>
    
    <!-- ID-kortti symboli -->
    <symbol id="id-card" viewBox="0 0 100 60">
      <rect x="0" y="0" width="100" height="60" rx="5" fill="#fff"/>
      <rect x="10" y="10" width="30" height="30" fill="#ddd"/>
      <rect x="50" y="15" width="40" height="5" fill="#ddd"/>
      <rect x="50" y="25" width="30" height="5" fill="#ddd"/>
      <rect x="10" y="45" width="80" height="5" fill="#ddd"/>
    </symbol>
    
    <!-- Lukko symboli -->
    <symbol id="lock" viewBox="0 0 100 120">
      <path d="M25,50 V30 C25,10 75,10 75,30 V50" fill="none" stroke="#fff" stroke-width="8"/>
      <rect x="15" y="50" width="70" height="60" rx="5" fill="#fff"/>
      <circle cx="50" cy="80" r="10" fill="#1a365d"/>
    </symbol>
    
    <!-- Turvallisuuskamera symboli -->
    <symbol id="security-camera" viewBox="0 0 120 60">
      <path d="M10,30 L90,30 L110,10 V50 L90,30" fill="#fff"/>
      <circle cx="50" cy="30" r="15" fill="#1a365d"/>
    </symbol>
  </defs>
  
  <!-- Tausta -->
  <rect width="100%" height="100%" fill="url(#bg-gradient)"/>
  
  <!-- Turvallisuussymbolit toistuvana kuviona -->
  <g opacity="0.08">
    <!-- Yläosa -->
    <use href="#id-card" x="200" y="100" width="150" height="90"/>
    <use href="#lock" x="500" y="80" width="100" height="120"/>
    <use href="#security-camera" x="800" y="100" width="180" height="90"/>
    <use href="#id-card" x="1200" y="100" width="150" height="90"/>
    <use href="#lock" x="1500" y="80" width="100" height="120"/>
    
    <!-- Keskiosa -->
    <use href="#security-camera" x="300" y="400" width="180" height="90"/>
    <use href="#id-card" x="600" y="400" width="150" height="90"/>
    <use href="#lock" x="900" y="380" width="100" height="120"/>
    <use href="#security-camera" x="1200" y="400" width="180" height="90"/>
    <use href="#id-card" x="1500" y="400" width="150" height="90"/>
    
    <!-- Alaosa -->
    <use href="#lock" x="200" y="700" width="100" height="120"/>
    <use href="#security-camera" x="500" y="720" width="180" height="90"/>
    <use href="#id-card" x="800" y="720" width="150" height="90"/>
    <use href="#lock" x="1200" y="700" width="100" height="120"/>
    <use href="#security-camera" x="1500" y="720" width="180" height="90"/>
  </g>
  
  <!-- Hienovarainen ruudukko -->
  <pattern id="grid" width="100" height="100" patternUnits="userSpaceOnUse">
    <path d="M 100 0 L 0 0 0 100" fill="none" stroke="#ffffff" stroke-width="0.5" opacity="0.05"/>
  </pattern>
  <rect width="100%" height="100%" fill="url(#grid)"/>
  
  <!-- Kevyt hehku/valo-efekti -->
  <radialGradient id="glow" cx="50%" cy="50%" r="70%">
    <stop offset="0%" style="stop-color:#ffffff;stop-opacity:0.05"/>
    <stop offset="100%" style="stop-color:#ffffff;stop-opacity:0"/>
  </radialGradient>
  <rect width="100%" height="100%" fill="url(#glow)"/>
</svg> 